# xmcd CD database file generated by freedbAccess_ocx
#
# Track frame offsets:
#       225
#       12332
#       26704
#       40677
#       54619
#       64070
#       82683
#       94691
#       109036
#       118525
#       131171
#       147307
#       159589
#       176901
#       190607
#       204322
#       217197
#       233367
#
# Disc length: 3237 seconds
#
# Revision: 0
# Processed by: cddbd v1.4PL0 Copyright (c) Steve Scherf et al.
# Submitted via: CDnGo 2.00
#
DISCID=f20ca212
DTITLE=Greenhorns - Hlavou dolu
DYEAR=1997
DGENRE=Country
TTITLE0=To je Australie
TTITLE1=Zacni vetre dout
TTITLE2=Australskej kolac
TTITLE3=Zase doma
TTITLE4=Tata lovi az k ranu
TTITLE5=Big John
TTITLE6=Muzi z Eureky
TTITLE7=Clancy z Owerflov
TTITLE8=V Melbourne zit, pokoj dat
TTITLE9=Zazracnej caj
TTITLE10=Nejhezci misto co znam
TTITLE11=Stringybark Creek
TTITLE12=Za strizliva je to fajn kluk
TTITLE13=Je mi lito nasich chvili nedelnich
TTITLE14=Country radio
TTITLE15=Kdo vsak to vysvetli vdovam
TTITLE16=Stezka ptacich stop
TTITLE17=Pod souhvezdim Jizni kriz
EXTD=
EXTT0=
EXTT1=
EXTT2=
EXTT3=
EXTT4=
EXTT5=
EXTT6=
EXTT7=
EXTT8=
EXTT9=
EXTT10=
EXTT11=
EXTT12=
EXTT13=
EXTT14=
EXTT15=
EXTT16=
EXTT17=
PLAYORDER=
